<svg width="100" height="68" viewBox="0 0 100 68" fill="none" xmlns="http://www.w3.org/2000/svg">
<path fill-rule="evenodd" clip-rule="evenodd" d="M34.2916 11.8997L18.4697 24.4963C19.4891 27.9117 20.2532 31.6217 20.6044 35.5868C21.9373 35.4453 23.2428 35.1671 24.5106 34.7589L34.4509 17.5684C34.4492 15.7265 34.3927 13.837 34.2916 11.8997Z" fill="#0090B1"/>
<path fill-rule="evenodd" clip-rule="evenodd" d="M31.0191 29.6089C32.2098 26.9276 33.3199 24.4339 34.353 22.1016C34.4181 20.6235 34.4524 19.1142 34.4507 17.5686L24.5104 34.7575C25.0672 34.5781 25.6257 34.374 26.1637 34.1419L22.0982 40.8953L22.1136 40.9002C21.9063 41.236 21.6938 41.5734 21.502 41.9224C21.8429 43.5815 22.2558 45.1518 22.7372 46.6332C25.3842 41.6854 28.1562 36.043 31.0191 29.6089Z" fill="#007B82"/>
<path fill-rule="evenodd" clip-rule="evenodd" d="M34.3536 22.1018C33.3188 24.4341 32.2103 26.9278 31.0196 29.6091C28.1568 36.0448 25.3848 41.6856 22.7378 46.635C22.9485 47.2819 23.1678 47.909 23.406 48.5229C26.0872 43.376 29.3509 37.9887 33.2914 32.6673C33.8208 29.3622 34.1874 25.8398 34.3536 22.1018Z" fill="#66489C"/>
<path fill-rule="evenodd" clip-rule="evenodd" d="M23.4067 48.5224C24.2719 50.7807 25.3016 52.8283 26.4615 54.6849C29.2883 48.8713 31.8616 41.555 33.2922 32.6667C29.3517 37.9882 26.0863 43.3754 23.4067 48.5224Z" fill="#6F2B90"/>
<path fill-rule="evenodd" clip-rule="evenodd" d="M67.375 31.0723L75.9378 16.5844C75.9275 16.4692 75.9138 16.3589 75.9053 16.2454C73.3936 18.8378 70.7347 21.5355 67.9507 24.3057C67.5686 26.5623 67.3853 28.8239 67.375 31.0723Z" fill="#8C0051"/>
<path fill-rule="evenodd" clip-rule="evenodd" d="M67.6684 36.4516L73.3599 26.9741L73.3564 26.9675C73.5586 26.6367 73.771 26.3025 73.9595 25.9569C75.5494 22.953 76.173 19.7186 75.9383 16.5847L67.3755 31.0726C67.3669 32.8798 67.4748 34.6772 67.6684 36.4516Z" fill="#EC1D24"/>
<path fill-rule="evenodd" clip-rule="evenodd" d="M75.907 16.2457C75.6843 13.9414 75.0041 11.7012 73.9008 9.64868C70.6593 14.3496 68.8039 19.3122 67.9507 24.3061C70.7347 21.5359 73.3937 18.8381 75.907 16.2457Z" fill="#7A0045"/>
<path fill-rule="evenodd" clip-rule="evenodd" d="M10.0672 1.9873C9.17117 2.42842 8.31112 2.94361 7.49219 3.52464C7.91879 4.06781 8.37451 4.65872 8.84737 5.30394L10.0672 1.9873Z" fill="#BCD652"/>
<path fill-rule="evenodd" clip-rule="evenodd" d="M23.5307 0.642153C23.4656 0.624047 23.4022 0.609233 23.3354 0.592773L13.8389 13.2635C14.7657 15.0049 15.6618 16.8978 16.4927 18.9256L19.2939 12.3763L24.2297 0.842961C23.995 0.772184 23.7637 0.704699 23.5307 0.642153Z" fill="#00A89C"/>
<path fill-rule="evenodd" clip-rule="evenodd" d="M27.0164 1.94673C26.1067 1.49903 25.173 1.13362 24.229 0.842285L19.2931 12.3756L16.4902 18.9249C16.569 19.1159 16.6479 19.3019 16.725 19.4961C16.8072 19.7101 16.8911 19.9306 16.9734 20.1462L32.725 6.27728C31.1848 4.53584 29.2728 3.05118 27.0164 1.94673Z" fill="#00A3E1"/>
<mask id="mask0" mask-type="alpha" maskUnits="userSpaceOnUse" x="8" y="0" width="16" height="14">
<path d="M23.3349 0H8.84766V13.2626H23.3349V0Z" fill="white"/>
</mask>
<g mask="url(#mask0)">
<path fill-rule="evenodd" clip-rule="evenodd" d="M13.8383 13.2629L23.3349 0.593809C18.8136 -0.560016 14.0885 -0.00038623 10.0675 1.98795L8.84766 5.30458C10.405 7.42953 12.1594 10.0993 13.8383 13.2629Z" fill="#6AC07A"/>
</g>
<path fill-rule="evenodd" clip-rule="evenodd" d="M18.4695 24.4952L34.2897 11.8986C34.2126 10.5818 34.1098 9.23046 33.9847 7.86924C33.5992 7.3162 33.1778 6.78784 32.7255 6.27759L16.9756 20.1465C17.5118 21.5357 18.0172 22.9858 18.4695 24.4952Z" fill="#007DAC"/>
<path fill-rule="evenodd" clip-rule="evenodd" d="M21.5001 41.9224C21.4761 41.9619 21.4539 41.9964 21.4333 42.0376C19.6789 45.3493 19.1033 48.9408 19.5522 52.3693C20.5921 50.5703 21.6526 48.6626 22.7388 46.6348C22.254 45.1534 21.8394 43.5831 21.5001 41.9224Z" fill="#006880"/>
<path fill-rule="evenodd" clip-rule="evenodd" d="M22.7374 46.6335C21.6512 48.663 20.5924 50.5691 19.5542 52.3698C19.6793 53.3244 19.8883 54.2659 20.171 55.1893C21.1441 53.0298 22.2149 50.8011 23.409 48.5215C23.1674 47.9075 22.9481 47.2804 22.7374 46.6335Z" fill="#49479D"/>
<path fill-rule="evenodd" clip-rule="evenodd" d="M15.3604 21.5681L5.35498 30.3806C6.2116 31.2184 7.16931 31.9805 8.21439 32.6554L11.8585 29.7568L15.3604 21.5681Z" fill="#006880"/>
<path fill-rule="evenodd" clip-rule="evenodd" d="M8.21533 32.6561C8.83381 33.0512 9.47457 33.4215 10.1496 33.749L11.8594 29.7576L8.21533 32.6561Z" fill="#005A7E"/>
<path fill-rule="evenodd" clip-rule="evenodd" d="M18.469 24.4949L13.4885 28.4567L11.8592 29.757L10.1494 33.7485C10.5572 33.951 10.9632 34.1254 11.3812 34.2966C14.3794 35.5097 17.5472 35.913 20.6037 35.5871C20.2542 31.6203 19.49 27.9119 18.469 24.4949Z" fill="#007B82"/>
<path fill-rule="evenodd" clip-rule="evenodd" d="M23.4062 48.5227C22.2155 50.8024 21.1465 53.031 20.1699 55.1889C20.7901 57.2036 21.7735 59.1129 23.0927 60.8148C24.22 58.996 25.3576 56.9567 26.461 54.6852C25.3011 52.8286 24.2714 50.781 23.4062 48.5227Z" fill="#5D1E79"/>
<path fill-rule="evenodd" clip-rule="evenodd" d="M16.4919 18.9253C15.6627 16.8975 14.7633 15.0046 13.8364 13.2632L3.05664 27.644C3.71967 28.6234 4.48549 29.5385 5.35582 30.3796L15.3612 21.5688L16.4919 18.9253Z" fill="#008C69"/>
<path fill-rule="evenodd" clip-rule="evenodd" d="M7.49367 3.52515C5.26473 5.11351 3.37502 7.20554 2.03012 9.74363C-0.608288 14.7095 -0.586016 20.3075 1.58124 25.0413L8.84713 5.30444C8.37428 4.65922 7.92027 4.06832 7.49367 3.52515Z" fill="#ADD376"/>
<path fill-rule="evenodd" clip-rule="evenodd" d="M16.7263 19.4969C16.6492 19.3027 16.5721 19.1167 16.4899 18.9258L15.3608 21.5692L16.262 20.7775L16.9747 20.1471C16.8925 19.9298 16.8085 19.7109 16.7263 19.4969Z" fill="#006880"/>
<path fill-rule="evenodd" clip-rule="evenodd" d="M8.84694 5.30444L1.58105 25.0413C1.99223 25.9466 2.48565 26.8156 3.05616 27.6436L13.8376 13.2627C12.1587 10.0992 10.4043 7.42939 8.84694 5.30444Z" fill="#3FB98C"/>
<path fill-rule="evenodd" clip-rule="evenodd" d="M16.9751 20.1462L16.2641 20.7766L15.3613 21.5684L11.8594 29.7571L13.4887 28.4567L18.4674 24.4949C18.0151 22.9872 17.5114 21.5354 16.9751 20.1462Z" fill="#005A7E"/>
<path fill-rule="evenodd" clip-rule="evenodd" d="M56.5752 54.9041L59.0029 50.8633C58.5232 51.1135 58.0674 51.3357 57.6391 51.5233L56.5752 54.9041Z" fill="#4B003B"/>
<path fill-rule="evenodd" clip-rule="evenodd" d="M65.4265 26.8008L60.3228 43.0119L67.3762 31.0721C67.3865 28.8253 67.5681 26.5621 67.9519 24.3071C67.1226 25.1334 66.2814 25.9646 65.4265 26.8008Z" fill="#4B003B"/>
<path fill-rule="evenodd" clip-rule="evenodd" d="M67.3755 31.0725L60.3221 43.0107L57.6392 51.5237C58.0675 51.3344 58.5232 51.1122 59.0046 50.8637L67.6685 36.4515C67.4732 34.6772 67.367 32.8798 67.3755 31.0725Z" fill="#C3151C"/>
<path fill-rule="evenodd" clip-rule="evenodd" d="M67.9506 24.3069C68.8021 19.313 70.6576 14.3487 73.9007 9.64785C73.3182 8.5648 72.6141 7.52949 71.8037 6.57153L65.4253 26.8005C66.2802 25.9644 67.1231 25.1332 67.9506 24.3069Z" fill="#690039"/>
<path fill-rule="evenodd" clip-rule="evenodd" d="M34.4503 17.5687L36.6553 13.7582C36.4103 12.7509 36.0728 11.765 35.6462 10.8169L34.291 11.8999C34.3938 13.8373 34.4469 15.7268 34.4503 17.5687Z" fill="#007B82"/>
<path fill-rule="evenodd" clip-rule="evenodd" d="M34.353 22.1017C35.3193 19.9142 36.2136 17.888 37.0531 15.9853C36.9674 15.2347 36.8321 14.4891 36.6556 13.7583L34.4507 17.5687C34.4524 19.1143 34.4198 20.6236 34.353 22.1017Z" fill="#006880"/>
<path fill-rule="evenodd" clip-rule="evenodd" d="M36.9917 52.5808C43.2519 47.4388 49.5121 41.859 55.3988 36.3746C55.4023 36.3746 55.404 36.3729 55.4074 36.368C55.4126 36.3499 55.4091 36.3598 55.4074 36.368C58.5461 26.1004 63.4477 13.6454 64.1244 8.41611C64.2546 7.43182 64.2495 6.47716 64.1433 5.54883C57.5061 6.67303 52.9729 9.29506 49.1917 12.829C44.7339 23.6216 39.9728 36.0734 38.1944 44.0415C37.5845 46.7574 37.002 49.7794 36.9917 52.5808Z" fill="#A6003D"/>
<path fill-rule="evenodd" clip-rule="evenodd" d="M33.2905 32.6664C34.2174 31.4121 35.1751 30.1645 36.1774 28.9234C38.7044 25.7977 40.8579 22.7626 42.9944 19.9496C44.7128 13.2719 45.5368 7.9801 45.8709 3.86353C44.1885 5.14409 42.7117 6.71599 41.5484 8.56277L41.5347 8.54961L37.0562 16.0174C37.0562 16.0059 37.0528 15.9943 37.0528 15.9861C36.2133 17.8872 35.3207 19.915 34.3527 22.1009C34.1848 25.8389 33.8216 29.3613 33.2905 32.6664Z" fill="#49479D"/>
<path fill-rule="evenodd" clip-rule="evenodd" d="M31.3916 57.0635C33.259 55.6052 35.1299 54.1073 36.9922 52.5815C37.0008 49.7801 37.5816 46.7581 38.1949 44.0422C39.975 36.0757 44.7327 23.6223 49.1923 12.8313C46.9565 14.9233 44.9879 17.3396 42.9937 19.9501C41.5375 25.6304 39.4387 32.318 36.4611 40.133C33.9221 46.8025 32.3168 52.3873 31.3916 57.0635Z" fill="#4A0048"/>
<path fill-rule="evenodd" clip-rule="evenodd" d="M55.4077 36.3706C55.3991 36.3755 55.3974 36.3805 55.3974 36.3805C49.5124 41.8599 43.2522 47.4398 36.992 52.5818C36.9817 54.5306 37.2541 56.3642 37.9822 57.9197C44.9826 51.0922 50.7802 43.5734 55.394 36.3887C55.394 36.3887 55.3991 36.3805 55.4077 36.3706Z" fill="#EC1D24"/>
<path fill-rule="evenodd" clip-rule="evenodd" d="M36.4621 40.1333C39.4398 32.3166 41.5368 25.6307 42.9948 19.9504C40.8583 22.7618 38.7065 25.7986 36.1777 28.9243C35.1755 30.1653 34.2178 31.4113 33.2909 32.6672C31.8604 41.5555 29.2888 48.8718 26.4619 54.6837C27.3545 56.1141 28.3174 57.4309 29.3522 58.6357C30.0289 58.1156 30.7142 57.5905 31.3926 57.0638C32.3161 52.3876 33.9248 46.8012 36.4621 40.1333Z" fill="#5D1E79"/>
<path fill-rule="evenodd" clip-rule="evenodd" d="M64.1247 8.41622C63.4463 13.6455 58.5481 26.1005 55.4077 36.3681C55.4163 36.3599 55.4197 36.35 55.4197 36.35C63.472 23.7501 68.1937 11.7872 70.4449 5.1325C70.3901 5.07983 70.3284 5.02881 70.2736 4.97778C68.0498 5.04033 66.0059 5.23291 64.1419 5.54894C64.2498 6.47726 64.2549 7.43193 64.1247 8.41622Z" fill="#7A0045"/>
<path fill-rule="evenodd" clip-rule="evenodd" d="M29.3511 58.636C29.8325 59.2039 30.3311 59.7438 30.8416 60.2639C30.9907 59.25 31.1688 58.1851 31.3898 57.0625C30.7131 57.5909 30.0295 58.1159 29.3511 58.636Z" fill="#6F2B90"/>
<path fill-rule="evenodd" clip-rule="evenodd" d="M31.3918 57.0635C31.169 58.1861 30.9891 59.251 30.8418 60.2649C31.5716 61.0171 32.3306 61.72 33.1101 62.3817C34.7977 60.9283 36.4219 59.4387 37.9826 57.9211C37.2545 56.3656 36.9821 54.5304 36.9924 52.5815C35.1301 54.1074 33.2592 55.6052 31.3918 57.0635Z" fill="#7A0045"/>
<path fill-rule="evenodd" clip-rule="evenodd" d="M49.1922 12.8301C51.135 8.13415 53.0196 3.7641 54.5803 0.210449C51.4143 0.682843 48.4041 1.93378 45.8719 3.86451C45.5378 7.98108 44.7155 13.2712 42.9971 19.9506C44.9862 17.3401 46.9564 14.9221 49.1922 12.8301Z" fill="#8B0304"/>
<path fill-rule="evenodd" clip-rule="evenodd" d="M70.2729 4.97834C68.988 3.79324 67.506 2.76451 65.8356 1.94646C64.7888 1.43292 63.7129 1.02637 62.625 0.720215C63.3857 2.20488 63.9476 3.82452 64.1429 5.54949C66.0052 5.23347 68.0491 5.04254 70.2729 4.97834Z" fill="#8B0304"/>
<mask id="mask1" mask-type="alpha" maskUnits="userSpaceOnUse" x="49" y="0" width="16" height="13">
<path d="M64.1429 0H49.1914V12.8297H64.1429V0Z" fill="white"/>
</mask>
<g mask="url(#mask1)">
<path fill-rule="evenodd" clip-rule="evenodd" d="M64.1429 5.54998C63.9476 3.82335 63.3874 2.20536 62.6233 0.720697C59.9643 -0.0331575 57.2197 -0.182941 54.5813 0.210446C53.0205 3.76574 51.1342 8.1358 49.1914 12.8301C52.9725 9.29621 57.5058 6.67417 64.1429 5.54998Z" fill="#EC1D24"/>
</g>
<path fill-rule="evenodd" clip-rule="evenodd" d="M35.647 10.8163C35.1912 9.78926 34.6361 8.80003 33.9834 7.86841C34.1102 9.22963 34.2147 10.581 34.2918 11.8994L35.647 10.8163Z" fill="#005A7E"/>
<path fill-rule="evenodd" clip-rule="evenodd" d="M26.4618 54.6846C25.355 56.9577 24.2174 58.9954 23.0918 60.8158C23.4996 61.3376 23.9279 61.838 24.3973 62.3202C26.0472 61.1285 27.697 59.9007 29.352 58.6365C28.3189 57.4301 27.3526 56.1149 26.4618 54.6846Z" fill="#4A0048"/>
<path fill-rule="evenodd" clip-rule="evenodd" d="M30.8415 60.2643C30.3292 59.7442 29.8307 59.2043 29.351 58.6365C27.6977 59.9006 26.0461 61.1285 24.3945 62.3202C25.6915 63.6534 27.2214 64.8138 28.9655 65.7438C29.4401 65.3767 29.9215 65.0113 30.3892 64.641C30.4594 63.2946 30.6102 61.8379 30.8415 60.2643Z" fill="#7A0045"/>
<path fill-rule="evenodd" clip-rule="evenodd" d="M30.8415 60.2644C30.6102 61.838 30.4594 63.2946 30.3892 64.641C31.3126 63.8987 32.2189 63.1449 33.1098 62.3811C32.3303 61.7211 31.5747 61.0183 30.8415 60.2644Z" fill="#8C0051"/>
<path fill-rule="evenodd" clip-rule="evenodd" d="M55.4079 36.3672C55.4027 36.3869 55.4044 36.3804 55.4079 36.3721C55.3993 36.382 55.3976 36.3853 55.3976 36.3853C50.7804 43.5716 44.9828 51.092 37.9824 57.9195C39.0241 60.1498 41.0046 61.7991 44.4876 62.3274C46.0518 62.5645 47.592 62.3982 49.1357 61.939L54.8288 52.3084H54.7911C51.3817 52.2311 52.7626 45.0513 55.4079 36.3672Z" fill="#A60E12"/>
<path fill-rule="evenodd" clip-rule="evenodd" d="M54.8289 52.3086L49.1357 61.9391C50.5817 61.5112 52.026 60.8182 53.4891 59.964C53.6022 59.801 53.7153 59.6381 53.8232 59.4669L53.8249 59.4751L56.5764 54.9043L57.6403 51.5234C56.4822 52.0353 55.5296 52.3135 54.8289 52.3086Z" fill="#5B003A"/>
<path fill-rule="evenodd" clip-rule="evenodd" d="M55.4079 36.3669C52.7626 45.0511 51.3817 52.2308 54.7911 52.3081H54.8288L60.3214 43.0101L65.4286 26.8005C62.2249 29.9509 58.8583 33.1523 55.4079 36.3669Z" fill="#690039"/>
<path fill-rule="evenodd" clip-rule="evenodd" d="M57.6396 51.5235L60.3208 43.0105L54.8281 52.3086C55.5306 52.3135 56.4831 52.0354 57.6396 51.5235Z" fill="#A60E12"/>
<path fill-rule="evenodd" clip-rule="evenodd" d="M55.4077 36.3672C55.418 36.359 55.4231 36.3508 55.4077 36.3672C58.8582 33.1527 62.2247 29.9513 65.4285 26.8009L71.8035 6.57023C71.3786 6.0715 70.9297 5.59253 70.4449 5.1333C68.192 11.7863 63.472 23.7509 55.4231 36.3491C55.4231 36.3491 55.4214 36.3491 55.4077 36.3672Z" fill="#4B003B"/>
<path fill-rule="evenodd" clip-rule="evenodd" d="M46.8364 65.8301C49.4611 64.4656 51.7603 62.4806 53.489 59.9639C52.0276 60.8181 50.5816 61.5111 49.1356 61.939L46.8364 65.8301Z" fill="#4B003B"/>
<path fill-rule="evenodd" clip-rule="evenodd" d="M44.4888 62.3273C41.004 61.799 39.0235 60.1497 37.9819 57.9194C36.4228 59.4387 34.7986 60.9283 33.1094 62.38C35.7221 64.6037 38.5626 66.3287 41.4546 67.6817C43.334 67.3344 45.1501 66.7106 46.8359 65.83L49.1351 61.9389C47.5932 62.3981 46.0513 62.5644 44.4888 62.3273Z" fill="#5B003A"/>
<path fill-rule="evenodd" clip-rule="evenodd" d="M28.9668 65.7441C29.1587 65.8511 29.3591 65.9548 29.5579 66.0552C29.8149 66.1803 30.0736 66.2971 30.3323 66.4091C30.3425 65.8412 30.358 65.2569 30.3922 64.6396C29.9211 65.0116 29.4397 65.377 28.9668 65.7441Z" fill="#4A0048"/>
<mask id="mask2" mask-type="alpha" maskUnits="userSpaceOnUse" x="30" y="62" width="12" height="7">
<path d="M30.332 68.0001H41.4562V62.3816H30.332V68.0001Z" fill="white"/>
</mask>
<g mask="url(#mask2)">
<path fill-rule="evenodd" clip-rule="evenodd" d="M30.3903 64.6399C30.356 65.2571 30.3406 65.8398 30.332 66.4093C33.9384 67.9828 37.8104 68.3515 41.4562 67.6816C38.5642 66.3303 35.7219 64.6037 33.1109 62.3816C32.2183 63.1453 31.3137 63.8975 30.3903 64.6399Z" fill="#690039"/>
</g>
<path fill-rule="evenodd" clip-rule="evenodd" d="M73.8171 48.896C68.9446 48.896 64.999 52.6916 64.999 57.3695C64.999 62.0555 68.9446 65.8511 73.8171 65.8511C78.6879 65.8511 82.6421 62.0555 82.6421 57.3695C82.6421 52.6916 78.6879 48.896 73.8171 48.896Z" fill="#66489C"/>
</svg>
